<svg xmlns="http://www.w3.org/2000/svg" width="338.558" height="245.243" viewBox="0 0 338.558 245.243"><g transform="translate(-125.674 903.909)"><g transform="translate(-198 64)"><path d="M368.274-11.92c0,7.443-43.785,13.473-97.8,13.473s-97.8-6.03-97.8-13.473,43.781-13.487,97.8-13.487S368.274-19.359,368.274-11.92Z" transform="translate(151 -727.304)" fill="#a6c9a7"/><path d="M202.664-29.592c6.383-.467,19.236,2.487,25.451,3.833A39.213,39.213,0,0,1,246.8-15.281a53.881,53.881,0,0,1,4.585,5.074c2.727,3.425-.965,8.032-5.432,6.7a105.855,105.855,0,0,0-40.215-3.81Z" transform="translate(256.873 -742.255)" fill="#58453a"/><path d="M182.219,37.227c3.457-13.944,2.288-28.64,2.365-43.079s1.69-29.651,9.686-41.235l80.136.965c.825,7.72,4.322,14.814,8.444,21.175s8.907,12.223,12.807,18.737c7.692,12.9,11.666,29.066,7.9,43.871C300.255,50.61,290.1,61.8,278.084,64.25c-14.429,3.606-29.42-1.259-44.27-1.876a58.172,58.172,0,0,0-9.187.258c-5.2.6-10.27,2.039-15.367,3.271-7.076,1.735-14.9,2.976-21.238-.779l-.054-.045A17.893,17.893,0,0,1,179.713,50.2C179.654,45.771,181.158,41.517,182.219,37.227Z" transform="translate(175.845 -803.837)" fill="#dbbda2"/><path d="M197.7-11.692s44.279-5.776,34.838-25.995c0,0,10.211,9.631,2.9,20.8S197.7-11.692,197.7-11.692Z" transform="translate(239.363 -770.656)" fill="#d3b093"/><path d="M197.251-15.208s35.354-5.391,27.014-25.737c0,0,10.216,9.627,2.89,20.8S197.251-15.208,197.251-15.208Z" transform="translate(237.764 -782.158)" fill="#d3b093"/><path d="M198.064-13.976s42.453,2.338,40.628-19.417c0,0,6.261,12.322-2.7,22.819C227.339-.422,198.064-13.976,198.064-13.976Z" transform="translate(240.634 -755.497)" fill="#d3b093"/><path d="M180.962-29.422s50.177,23.05,94.837-6.945l-3.461-8.472-89.324,3.6Z" transform="translate(180.259 -795.905)" fill="#8b1905"/><path d="M207.02-34.539a2.847,2.847,0,0,0,1.133-2.111,2.793,2.793,0,0,0-2.419-3.09,2.67,2.67,0,0,0-2.773,2.12l-11.068-.965a2.767,2.767,0,0,0-2.428-2.578,2.719,2.719,0,0,0-2.854,2.632,3.007,3.007,0,0,0,.806,2.283,2.914,2.914,0,0,0-1.133,2.111,2.8,2.8,0,0,0,2.424,3.09,2.689,2.689,0,0,0,2.8-2.261l11.045.96a2.779,2.779,0,0,0,2.419,2.727,2.727,2.727,0,0,0,2.854-2.637A2.93,2.93,0,0,0,207.02-34.539Z" transform="translate(199.019 -782.96)" fill="#fff"/><path d="M186.961,45.854l-.045-.032c-4.875-2.424-8.046-7.131-8.014-11.878.023-3.5,1.608-6.8,2.763-10.148,3.728-10.873,2.831-22.443,3.176-33.782.294-9.672,1.749-19.788,7.3-28.083a9.058,9.058,0,0,1,7.692-3.516h0a9.158,9.158,0,0,1,7.665,3.8c5.414,8.653,6.41,19.036,6.238,28.9C213.54,2.445,212.09,13.966,215.288,25c.988,3.4,2.419,6.786,2.274,10.266-.2,4.752-3.588,9.3-8.567,11.489l-.05.023c-.127.054-.263.1-.394.154-.091.023-.186.036-.276.05C201.14,48.16,193.267,48.962,186.961,45.854Z" transform="translate(172.983 -784.422)" fill="#e2cfb3"/><path d="M196.852,46.868l-.045-.027c-4.861-2.433-8.032-7.117-8-11.878.018-3.488,1.608-6.8,2.754-10.148,3.724-10.873,2.831-22.448,3.176-33.769.3-9.681,1.749-19.8,7.3-28.088a9.035,9.035,0,0,1,7.692-3.525h0c3.239.045,6.234,1.513,7.656,3.8,5.414,8.657,6.41,19.023,6.238,28.9-.2,11.335-1.64,22.846,1.563,33.887.992,3.393,2.419,6.773,2.274,10.261-.2,4.757-3.593,9.3-8.571,11.493a.065.065,0,0,0-.05.023c-.136.05-.263.1-.39.163a1.965,1.965,0,0,0-.285.036C211.041,49.2,203.158,49.98,196.852,46.868Z" transform="translate(207.951 -780.828)" fill="#e2cfb3"/><path d="M190.693-13.533s3.955-4.277,3.765-9.917c0,0,2.048,8.2.761,11.434A10.837,10.837,0,0,1,190.693-13.533Z" transform="translate(214.612 -720.396)" fill="#d3b093"/><path d="M193.82-12.713S196.579-19.2,196-23.155c0,0,2.378,6.311,1.83,10.121A9.015,9.015,0,0,1,193.82-12.713Z" transform="translate(225.652 -719.354)" fill="#d3b093"/><path d="M188.046-13.849s-3.081-4.956-1.821-10.442c0,0-3.561,7.656-2.922,11.081A10.863,10.863,0,0,0,188.046-13.849Z" transform="translate(188.252 -723.365)" fill="#d3b093"/><path d="M184.024-13.94s-.757-7.017.951-10.628c0,0-4.109,5.35-4.684,9.169A9.091,9.091,0,0,0,184.024-13.94Z" transform="translate(177.89 -724.342)" fill="#d3b093"/><path d="M175.226-35.05l8.2,11.113L224.47-62.915s-9.251-6.845-10.841-6.225" transform="translate(160.009 -881.835)" fill="#45352e"/><path d="M241.068-28.907l-9.8,9.713L196.712-64.022s10.184-5.341,11.665-4.485" transform="translate(235.861 -879.786)" fill="#45352e"/><path d="M175.228-.761c-.349,38.476,30.978,58.124,68.883,58.463S312.156,38.947,312.5.467,280.073-69.35,248.324-69.241C214.51-69.137,175.577-39.232,175.228-.761Z" transform="translate(160.007 -882.051)" fill="#e2cfb3"/><path d="M186.953-56.308c4.684.53,8.639,3.561,13.2,4.612a33.117,33.117,0,0,0,10.393.63c8.943-.806,17.528-5.5,26.489-2.415,2.419.829,3.466-3.008,1.06-3.824-8.145-2.8-15.507.131-23.607,1.681A30.225,30.225,0,0,1,197.35-56.8c-3.629-1.4-6.492-3.017-10.4-3.47-2.537-.281-2.514,3.683,0,3.964Z" transform="translate(194.722 -850.438)" fill="#dbbda2"/><path d="M188.384-59.937c3.307.376,6.111,2.514,9.323,3.257a23.518,23.518,0,0,0,7.339.444c6.32-.566,12.381-3.887,18.715-1.708,1.717.58,2.446-2.116.747-2.7-5.767-1.971-10.954.1-16.667,1.187a21.213,21.213,0,0,1-12.1-.829c-2.578-1.006-4.594-2.129-7.353-2.442-1.785-.208-1.776,2.591,0,2.8Z" transform="translate(201.745 -859.113)" fill="#dbbda2"/><path d="M188.947-63.027c2.791.313,5.16,2.12,7.878,2.75a19.534,19.534,0,0,0,6.2.376c5.337-.485,10.46-3.275,15.811-1.445,1.441.485,2.066-1.789.634-2.288-4.879-1.667-9.255.091-14.089,1.006a18.02,18.02,0,0,1-10.229-.693c-2.17-.847-3.878-1.812-6.206-2.079-1.5-.168-1.5,2.206,0,2.374Z" transform="translate(204.471 -868.522)" fill="#dbbda2"/><path d="M264.714-22.887C263.463-8.331,242.175-2.868,219.27-4.843s-40.4-10.864-39.142-25.429S201-54.187,224.2-52.447C249.623-50.531,265.964-37.457,264.714-22.887Z" transform="translate(177.092 -823.497)" fill="#826a56"/><path d="M228.774-39.553A18.062,18.062,0,0,1,210.726-21.5a18.053,18.053,0,0,1-18.049-18.049,18.052,18.052,0,0,1,18.049-18.058A18.061,18.061,0,0,1,228.774-39.553Z" transform="translate(221.616 -840.994)" fill="#826a56"/><path d="M215-40.3A18.042,18.042,0,0,1,196.95-22.256,18.05,18.05,0,0,1,178.9-40.3,18.055,18.055,0,0,1,196.95-58.353,18.047,18.047,0,0,1,215-40.3Z" transform="translate(172.969 -843.613)" fill="#826a56"/><path d="M213.536-69.157S231-31.28,216.825-25.213s-36.288-4.879-36.288-4.879-6.583-1.25-5.056-6.714S182.925-69.973,213.536-69.157Z" transform="translate(160.102 -881.818)" fill="#58453a"/><path d="M210.21-68.579S187.128-33.836,200.2-25.664s36.6.766,36.6.766,6.7-.217,6.025-5.853C242.167-36.369,240.577-64.683,210.21-68.579Z" transform="translate(234.028 -879.714)" fill="#58453a"/><path d="M195.017-48.245a6.66,6.66,0,0,0,6.66,6.664,6.656,6.656,0,0,0,6.655-6.664,6.655,6.655,0,0,0-6.655-6.66A6.659,6.659,0,0,0,195.017-48.245Z" transform="translate(229.877 -831.441)" fill="#1c1a1c"/><path d="M181.726-49.009a6.671,6.671,0,0,0,6.669,6.655,6.661,6.661,0,0,0,6.66-6.655,6.655,6.655,0,0,0-6.66-6.669A6.666,6.666,0,0,0,181.726-49.009Z" transform="translate(182.956 -834.17)" fill="#1c1a1c"/><path d="M186.676-47.035c-.489,4.5,4.766,12.413,12.241,13.238s14.338-5.758,14.837-10.252-5.174-8.8-12.653-9.627S187.169-51.52,186.676-47.035Z" transform="translate(200.318 -827.587)" fill="#1c1a1c"/><path d="M217.266-27.7c-3.8.181-7.973-2.528-10.5-5.441a16.056,16.056,0,0,1-3.452-7.774l.661-8.716-2.066-.163-.68,8.789a15.326,15.326,0,0,1-4.132,7.171c-2.791,2.569-7.194,4.725-10.95,4.064-.9-.159-.96,1.3-.072,1.468,4.154.725,8.907-1.626,11.964-4.435a15.97,15.97,0,0,0,4.163-6.641,16.489,16.489,0,0,0,3.52,7.217c2.773,3.171,7.271,6.12,11.471,5.921C218.1-26.286,218.163-27.749,217.266-27.7Z" transform="translate(196.067 -813.412)" fill="#1c1a1c"/><path d="M399.833-11.247c0,7.434-43.794,13.478-97.8,13.478s-97.8-6.043-97.8-13.478,43.794-13.478,97.8-13.478S399.833-18.686,399.833-11.247Z" transform="translate(262.398 -724.897)" fill="#a6c9a7"/><path d="M328.7,59.009c-3.941-4.929-4.3-5.618-9.083-9.292,4.444-16.694,7.18-34.335,5.676-51.781S317.728-36.8,306.837-48.282l-68.729-1.427c-10.9,11.475-16.957,28.763-18.456,46.2s1.241,35.1,5.676,51.786c-4.775,3.674-5.137,4.363-9.074,9.3-2.406,3-4.775,6.936-3.937,11.009.607,2.949,2.763,5.015,4.947,6.492,9.047,6.125,16.844,9.228,25.478,2.27a7.314,7.314,0,0,1,2.75-1.7,4.237,4.237,0,0,1,1.735.077,85.913,85.913,0,0,0,49.534,1.658,5.913,5.913,0,0,1,2.7-.29,7.176,7.176,0,0,1,2.75,1.69c8.63,6.968,16.418,3.851,25.469-2.27,2.188-1.472,4.354-3.538,4.961-6.5C333.471,65.94,331.1,62.008,328.7,59.009Z" transform="translate(290.344 -813.097)" fill="#f6f5f2"/><path d="M257.357,51.616c.023,0,.027-.014.05-.023,5.029-2.555,8.29-7.516,8.268-12.531-.018-3.692-1.672-7.185-2.85-10.71-3.864-11.466-2.945-23.684-3.3-35.626-.308-10.22-1.821-20.889-7.552-29.642a9.32,9.32,0,0,0-7.946-3.724h0a9.372,9.372,0,0,0-7.91,4.018c-5.586,9.119-6.605,20.065-6.424,30.475.2,11.96,1.708,24.119-1.595,35.758-1.015,3.583-2.5,7.153-2.342,10.827.213,5.02,3.715,9.8,8.852,12.123l.054.023a3.8,3.8,0,0,0,.417.163,1.851,1.851,0,0,0,.276.045C242.729,54.062,250.847,54.9,257.357,51.616Z" transform="translate(338.347 -781.082)" fill="#fff"/><path d="M248.23,51.66l.036-.036c5.033-2.555,8.3-7.511,8.277-12.54-.032-3.674-1.672-7.171-2.859-10.7-3.855-11.466-2.94-23.68-3.307-35.622-.3-10.225-1.8-20.889-7.557-29.646a9.254,9.254,0,0,0-7.932-3.715h0a9.389,9.389,0,0,0-7.914,4c-5.586,9.129-6.61,20.083-6.428,30.493.217,11.96,1.722,24.106-1.581,35.748-1.028,3.579-2.492,7.153-2.338,10.827.2,5.015,3.7,9.813,8.839,12.132l.063.023.412.168c.082.014.181.027.276.045C233.584,54.084,241.711,54.936,248.23,51.66Z" transform="translate(306.126 -780.941)" fill="#fff"/><path d="M225.719-11.657s-2.94-5.02-1.545-10.488c0,0-3.751,7.57-3.2,11A10.8,10.8,0,0,0,225.719-11.657Z" transform="translate(321.311 -715.789)" fill="#e0e0d9"/><path d="M222.153-11.393s-1.495-7.267-.086-10.986c0,0-3.674,5.645-3.964,9.477C218.1-12.9,220.468-11.343,222.153-11.393Z" transform="translate(311.378 -716.615)" fill="#e0e0d9"/><path d="M228.156-12.026s3.461-4.7,2.637-10.284c0,0,2.954,7.923,2.034,11.28A10.867,10.867,0,0,1,228.156-12.026Z" transform="translate(346.868 -716.371)" fill="#e0e0d9"/><path d="M231.615-11.617s1.291-6.931-.109-10.664c0,0,3.67,5.645,3.955,9.5A9.051,9.051,0,0,1,231.615-11.617Z" transform="translate(358.694 -716.269)" fill="#e0e0d9"/><path d="M239.749-53.654c2.5,8.449,6.406,16.046,8.567,24.667,2.17,8.644,2.211,19.236-2.315,25.859-2.759,4.009-6.854,6.071-9.178,10.569-2.238,4.345-2.383,10.089-3.946,14.964a7.794,7.794,0,0,1-1.631,3.121,4.5,4.5,0,0,1-2.025,1.1c-3.615,1.074-7.452.045-10.755-2.27a31.185,31.185,0,0,1-8.417-9.858,24.77,24.77,0,0,1-2.6-5.713A38.849,38.849,0,0,1,206.375-1.46c-.154-8.087-.267-16.4,1.663-24.033,1.875-7.366,5.527-13.568,9.115-19.6,2.981-5,5.994-10.048,9.794-13.808a51.077,51.077,0,0,1,8.4-6.379Z" transform="translate(269.703 -868.078)" fill="#efeeea"/><path d="M209.627-59.185a6.926,6.926,0,0,0,6.931,6.931,6.924,6.924,0,0,0,6.922-6.931,6.926,6.926,0,0,0-6.922-6.931A6.928,6.928,0,0,0,209.627-59.185Z" transform="translate(281.455 -871.019)" fill="#efeeea"/><path d="M208.478-57.064a6.943,6.943,0,0,0,6.936,6.94,6.94,6.94,0,0,0,6.936-6.94,6.934,6.934,0,0,0-6.936-6.927A6.937,6.937,0,0,0,208.478-57.064Z" transform="translate(277.398 -863.517)" fill="#efeeea"/><path d="M206.481-55.956a6.936,6.936,0,0,0,6.936,6.936,6.928,6.928,0,0,0,6.927-6.936,6.927,6.927,0,0,0-6.927-6.931A6.935,6.935,0,0,0,206.481-55.956Z" transform="translate(270.349 -859.619)" fill="#efeeea"/><path d="M206.355-53.823a6.923,6.923,0,0,0,6.922,6.927,6.928,6.928,0,0,0,6.936-6.927,6.934,6.934,0,0,0-6.936-6.94A6.928,6.928,0,0,0,206.355-53.823Z" transform="translate(269.904 -852.121)" fill="#efeeea"/><path d="M205.335-51.662a6.924,6.924,0,0,0,6.931,6.922,6.926,6.926,0,0,0,6.927-6.922,6.927,6.927,0,0,0-6.927-6.931A6.926,6.926,0,0,0,205.335-51.662Z" transform="translate(266.303 -844.46)" fill="#efeeea"/><path d="M204.909-49.193a6.932,6.932,0,0,0,6.927,6.927,6.932,6.932,0,0,0,6.94-6.927,6.934,6.934,0,0,0-6.94-6.936A6.934,6.934,0,0,0,204.909-49.193Z" transform="translate(264.799 -835.762)" fill="#efeeea"/><path d="M204.825-46.822a6.927,6.927,0,0,0,6.931,6.927,6.92,6.92,0,0,0,6.922-6.927,6.92,6.92,0,0,0-6.922-6.927A6.927,6.927,0,0,0,204.825-46.822Z" transform="translate(264.502 -827.36)" fill="#efeeea"/><path d="M205.547-44.949a6.925,6.925,0,0,0,6.931,6.927,6.917,6.917,0,0,0,6.922-6.927,6.924,6.924,0,0,0-6.922-6.931A6.931,6.931,0,0,0,205.547-44.949Z" transform="translate(267.051 -820.762)" fill="#efeeea"/><path d="M205.887-42.614a6.928,6.928,0,0,0,6.936,6.927,6.923,6.923,0,0,0,6.922-6.927,6.92,6.92,0,0,0-6.922-6.927A6.926,6.926,0,0,0,205.887-42.614Z" transform="translate(268.252 -812.504)" fill="#efeeea"/><path d="M207.035-40.4a6.926,6.926,0,0,0,6.927,6.922,6.924,6.924,0,0,0,6.931-6.922,6.923,6.923,0,0,0-6.931-6.931A6.925,6.925,0,0,0,207.035-40.4Z" transform="translate(272.304 -804.706)" fill="#efeeea"/><path d="M209.372-40.269a6.925,6.925,0,0,0,6.922,6.922,6.924,6.924,0,0,0,6.931-6.922,6.927,6.927,0,0,0-6.931-6.936A6.927,6.927,0,0,0,209.372-40.269Z" transform="translate(280.555 -804.258)" fill="#efeeea"/><path d="M210.986-41.63a6.932,6.932,0,0,0,6.936,6.931,6.927,6.927,0,0,0,6.922-6.931,6.93,6.93,0,0,0-6.922-6.936A6.936,6.936,0,0,0,210.986-41.63Z" transform="translate(286.252 -809.062)" fill="#efeeea"/><path d="M211.283-43.975a6.945,6.945,0,0,0,6.931,6.94,6.935,6.935,0,0,0,6.927-6.94,6.929,6.929,0,0,0-6.927-6.927A6.939,6.939,0,0,0,211.283-43.975Z" transform="translate(287.301 -817.309)" fill="#efeeea"/><path d="M245.014-53.905c-2.487,8.449-6.388,16.042-8.562,24.677s-2.206,19.236,2.324,25.854c2.759,4.009,6.85,6.062,9.169,10.569,2.238,4.331,2.4,10.093,3.95,14.968a7.845,7.845,0,0,0,1.635,3.112,4.536,4.536,0,0,0,2.016,1.105c3.624,1.069,7.461.041,10.755-2.279a31.2,31.2,0,0,0,8.426-9.849,25.039,25.039,0,0,0,2.6-5.726,39.405,39.405,0,0,0,1.087-10.243c.14-8.087.263-16.391-1.672-24.029-1.875-7.371-5.531-13.564-9.119-19.6-2.976-4.988-5.989-10.057-9.79-13.822a51.773,51.773,0,0,0-8.408-6.374Z" transform="translate(371.113 -868.982)" fill="#efeeea"/><path d="M252.09-59.443a6.927,6.927,0,0,1-6.936,6.931,6.925,6.925,0,0,1-6.927-6.931,6.927,6.927,0,0,1,6.927-6.927A6.928,6.928,0,0,1,252.09-59.443Z" transform="translate(382.421 -871.915)" fill="#efeeea"/><path d="M253.234-57.311a6.933,6.933,0,0,1-6.931,6.927,6.927,6.927,0,0,1-6.927-6.927,6.931,6.931,0,0,1,6.927-6.936A6.938,6.938,0,0,1,253.234-57.311Z" transform="translate(386.477 -864.421)" fill="#efeeea"/><path d="M255.243-56.205a6.94,6.94,0,0,1-6.936,6.927,6.931,6.931,0,0,1-6.936-6.927,6.933,6.933,0,0,1,6.936-6.936A6.942,6.942,0,0,1,255.243-56.205Z" transform="translate(393.52 -860.516)" fill="#efeeea"/><ellipse cx="6.93" cy="6.93" rx="6.93" ry="6.93" transform="translate(635.474 -914.029)" fill="#efeeea"/><path d="M256.376-51.925a6.924,6.924,0,0,1-6.922,6.931,6.935,6.935,0,0,1-6.936-6.931,6.927,6.927,0,0,1,6.936-6.922A6.916,6.916,0,0,1,256.376-51.925Z" transform="translate(397.57 -845.357)" fill="#efeeea"/><path d="M256.8-49.46a6.921,6.921,0,0,1-6.927,6.927,6.925,6.925,0,0,1-6.931-6.927,6.921,6.921,0,0,1,6.931-6.922A6.917,6.917,0,0,1,256.8-49.46Z" transform="translate(399.073 -836.655)" fill="#efeeea"/><path d="M256.892-47.077a6.934,6.934,0,0,1-6.927,6.936,6.939,6.939,0,0,1-6.936-6.936A6.931,6.931,0,0,1,249.965-54,6.927,6.927,0,0,1,256.892-47.077Z" transform="translate(399.373 -828.26)" fill="#efeeea"/><path d="M256.156-45.206a6.917,6.917,0,0,1-6.927,6.922,6.919,6.919,0,0,1-6.922-6.922,6.914,6.914,0,0,1,6.922-6.927A6.912,6.912,0,0,1,256.156-45.206Z" transform="translate(396.825 -821.655)" fill="#efeeea"/><path d="M255.829-42.87a6.92,6.92,0,0,1-6.936,6.927,6.926,6.926,0,0,1-6.927-6.927,6.929,6.929,0,0,1,6.927-6.927A6.923,6.923,0,0,1,255.829-42.87Z" transform="translate(395.621 -813.408)" fill="#efeeea"/><path d="M254.686-40.665a6.942,6.942,0,0,1-6.931,6.94,6.937,6.937,0,0,1-6.936-6.94,6.927,6.927,0,0,1,6.936-6.922A6.932,6.932,0,0,1,254.686-40.665Z" transform="translate(391.572 -805.606)" fill="#efeeea"/><path d="M252.346-40.529a6.942,6.942,0,0,1-6.931,6.927,6.93,6.93,0,0,1-6.931-6.927,6.928,6.928,0,0,1,6.931-6.931A6.94,6.94,0,0,1,252.346-40.529Z" transform="translate(383.325 -805.158)" fill="#efeeea"/><path d="M250.734-41.885a6.939,6.939,0,0,1-6.936,6.936,6.938,6.938,0,0,1-6.931-6.936,6.938,6.938,0,0,1,6.931-6.936A6.939,6.939,0,0,1,250.734-41.885Z" transform="translate(377.62 -809.962)" fill="#efeeea"/><path d="M250.42-44.227a6.928,6.928,0,0,1-6.931,6.931,6.928,6.928,0,0,1-6.918-6.931,6.934,6.934,0,0,1,6.918-6.931A6.934,6.934,0,0,1,250.42-44.227Z" transform="translate(376.575 -818.213)" fill="#efeeea"/><path d="M315.227-1.061a57.5,57.5,0,0,0,4.394-24.015c-.974-30.185-24.731-45.566-53.136-44.664s-50.68,17.754-49.72,47.935A57.326,57.326,0,0,0,221.817.058c-5.717,7.1-8.92,15.521-8.635,24.477.757,23.956,25.918,40.292,56.475,39.327s54.952-18.9,54.187-42.843A36.5,36.5,0,0,0,315.227-1.061Z" transform="translate(293.945 -883.944)" fill="#fff"/><path d="M277.536-27.267c0,13.913-13.165,25.207-29.4,25.207s-29.388-11.294-29.388-25.207c0-13.935,13.156-25.22,29.388-25.22S277.536-41.2,277.536-27.267Z" transform="translate(313.665 -822.904)" fill="#f6f5f2"/><path d="M334.994-39.566a8.4,8.4,0,0,0-8.467-8.345c-.131,0-.245.018-.385.018a8.419,8.419,0,0,0-8.177-8.259,8.459,8.459,0,0,0-8.322-6.714,8.455,8.455,0,0,0-2.492.367,8.537,8.537,0,0,0-5.468-3.8,8.484,8.484,0,0,0-8.308-6.614,8.512,8.512,0,0,0-7.86,5.169,8.558,8.558,0,0,0-5.74-2.206,8.542,8.542,0,0,0-5.867,2.315,8.5,8.5,0,0,0-6.877-3.47,8.48,8.48,0,0,0-8.186,6.12,8.538,8.538,0,0,0-5.658-2.129,8.539,8.539,0,0,0-7.045,3.674,8.5,8.5,0,0,0-6.188-2.65,8.443,8.443,0,0,0-8.5,8.376c0,.063.014.118.014.19a8.392,8.392,0,0,0-3.411-.711,8.432,8.432,0,0,0-8.5,8.367,8.235,8.235,0,0,0,.693,3.3,8.406,8.406,0,0,0-7.362,8.281,8.25,8.25,0,0,0,1.993,5.4,8.33,8.33,0,0,0-3.094,6.46,8.431,8.431,0,0,0,8.5,8.358,8.564,8.564,0,0,0,5.1-1.672C235.812-12.584,253.29-7.895,273.1-7.895c20.364,0,38.254-4.961,48.578-12.454a8.448,8.448,0,0,0,3.878.933,8.411,8.411,0,0,0,8.481-8.345,8.227,8.227,0,0,0-2.052-5.432A8.267,8.267,0,0,0,334.994-39.566Z" transform="translate(289.052 -895)" fill="#fff"/><path d="M228.714-50.43a6.46,6.46,0,0,0,7.362,5.4,6.438,6.438,0,0,0,5.4-7.348,6.444,6.444,0,0,0-7.353-5.4A6.452,6.452,0,0,0,228.714-50.43Z" transform="translate(348.575 -841.873)" fill="#1c1a1c"/><path d="M219.693-50.426a6.454,6.454,0,0,0,7.362,5.4,6.449,6.449,0,0,0,5.4-7.348,6.455,6.455,0,0,0-7.362-5.4A6.453,6.453,0,0,0,219.693-50.426Z" transform="translate(316.728 -841.872)" fill="#1c1a1c"/><path d="M222.633-44.72c.018,4.63,5.024,12.078,11.154,12.051s11.054-7.529,11.031-12.164-5.006-8.349-11.135-8.318S222.61-49.345,222.633-44.72Z" transform="translate(327.37 -825.249)" fill="#1c1a1c"/><path d="M253.511-28.218c-3.774.444-8.127-1.962-10.854-4.68a15.982,15.982,0,0,1-4-7.511l.054-8.743-2.089,0-.045,8.807a15.332,15.332,0,0,1-3.62,7.448c-2.6,2.754-6.832,5.228-10.624,4.829-.906-.091-.87,1.377.027,1.468,4.2.439,8.771-2.256,11.629-5.273a15.781,15.781,0,0,0,3.67-6.931,16.5,16.5,0,0,0,4.027,6.968c3,2.967,7.692,5.581,11.86,5.087C254.445-26.854,254.409-28.327,253.511-28.218Z" transform="translate(323.958 -811.149)" fill="#1c1a1c"/><path d="M256.4-46.965s-3.52-24.586-10.809-21.016-35.59,28.7,2.619,29.954Z" transform="translate(348.651 -878.853)" fill="#6bc5b4"/><path d="M241.823-49.681s-1.336-18.982-7.674-18.325C227.068-67.277,241.823-49.681,241.823-49.681Z" transform="translate(361.234 -877.75)" fill="#468f7e"/><path d="M238.059-61.309s23.77-7.244,23.625.874S250.789-16.02,233.434-50.1Z" transform="translate(365.5 -864.554)" fill="#6bc5b4"/><path d="M234.964-60.805s17.75-6.85,19.856-.82C257.158-54.907,234.964-60.805,234.964-60.805Z" transform="translate(370.902 -863.93)" fill="#468f7e"/><path d="M244.673-53.712a6.773,6.773,0,0,1-9.314,2.288,6.783,6.783,0,0,1-1.885-9.414,6.768,6.768,0,0,1,9.314-2.279A6.772,6.772,0,0,1,244.673-53.712Z" transform="translate(361.668 -863.987)" fill="#468f7e"/></g></g></svg>