<svg xmlns="http://www.w3.org/2000/svg" width="116.179" height="54.134" viewBox="0 0 116.179 54.134"><g transform="translate(-21.674 -35.091)"><path d="M215.85-22.43c0,1.643-9.665,2.974-21.589,2.974s-21.587-1.331-21.587-2.974,9.664-2.977,21.587-2.977S215.85-24.072,215.85-22.43Z" transform="translate(-151 108)" fill="#a6c9a7"/><path d="M202.664-29.631a26.9,26.9,0,0,1,5.618.846,8.656,8.656,0,0,1,4.125,2.313,11.9,11.9,0,0,1,1.012,1.12.993.993,0,0,1-1.2,1.48,23.366,23.366,0,0,0-8.877-.841Z" transform="translate(-151 108)" fill="#58453a"/><path d="M180.265-28.475c.763-3.078.505-6.322.522-9.509s.373-6.545,2.138-9.1l17.689.213a10.868,10.868,0,0,0,1.864,4.674c.912,1.406,1.966,2.7,2.827,4.136a13.066,13.066,0,0,1,1.743,9.684,7.911,7.911,0,0,1-5.622,5.869c-3.185.8-6.494-.278-9.772-.414a12.841,12.841,0,0,0-2.028.057,28.314,28.314,0,0,0-3.392.722c-1.562.383-3.288.657-4.688-.172l-.012-.01a3.95,3.95,0,0,1-1.822-3.284A11.464,11.464,0,0,1,180.265-28.475Z" transform="translate(-151 108)" fill="#dbbda2"/><path d="M197.7-31.949s9.774-1.275,7.69-5.738c0,0,2.254,2.126.64,4.591S197.7-31.949,197.7-31.949Z" transform="translate(-151 108)" fill="#d3b093"/><path d="M197.251-35.264s7.8-1.19,5.963-5.681c0,0,2.255,2.125.638,4.592S197.251-35.264,197.251-35.264Z" transform="translate(-151 108)" fill="#d3b093"/><path d="M198.064-29.107s9.371.516,8.968-4.286a4.771,4.771,0,0,1-.6,5.037C204.526-26.115,198.064-29.107,198.064-29.107Z" transform="translate(-151 108)" fill="#d3b093"/><path d="M180.962-41.436s11.076,5.088,20.934-1.533l-.764-1.87-19.717.8Z" transform="translate(-151 108)" fill="#8b1905"/><path d="M190.855-39.708a.629.629,0,0,0,.25-.466.617.617,0,0,0-.534-.682.589.589,0,0,0-.612.468l-2.443-.213a.611.611,0,0,0-.536-.569.6.6,0,0,0-.63.581.664.664,0,0,0,.178.5.643.643,0,0,0-.25.466.619.619,0,0,0,.535.682.593.593,0,0,0,.618-.5l2.438.212a.613.613,0,0,0,.534.6.6.6,0,0,0,.63-.582A.647.647,0,0,0,190.855-39.708Z" transform="translate(-151 108)" fill="#fff"/><path d="M180.68-22.285l-.01-.007a3.033,3.033,0,0,1-1.769-2.622,7.228,7.228,0,0,1,.61-2.24c.823-2.4.625-4.954.7-7.457a11.628,11.628,0,0,1,1.611-6.2,2,2,0,0,1,1.7-.776h0a2.022,2.022,0,0,1,1.692.839,11.489,11.489,0,0,1,1.377,6.379c-.043,2.5-.363,5.044.343,7.48a7.286,7.286,0,0,1,.5,2.266,3.036,3.036,0,0,1-1.891,2.536l-.011.005c-.028.012-.058.022-.087.034s-.041.008-.061.011A7.929,7.929,0,0,1,180.68-22.285Z" transform="translate(-151 108)" fill="#e2cfb3"/><path d="M190.582-21.268l-.01-.006a3.034,3.034,0,0,1-1.766-2.622,7.266,7.266,0,0,1,.608-2.24c.822-2.4.625-4.955.7-7.454a11.625,11.625,0,0,1,1.612-6.2,1.994,1.994,0,0,1,1.7-.778h0a2.02,2.02,0,0,1,1.69.839,11.487,11.487,0,0,1,1.377,6.38c-.044,2.5-.362,5.043.345,7.48a7.234,7.234,0,0,1,.5,2.265,3.039,3.039,0,0,1-1.892,2.537.014.014,0,0,0-.011,0c-.03.011-.058.023-.086.036a.434.434,0,0,0-.063.008A7.891,7.891,0,0,1,190.582-21.268Z" transform="translate(-151 108)" fill="#e2cfb3"/><path d="M190.693-21.261a3.4,3.4,0,0,0,.831-2.189,6.241,6.241,0,0,1,.168,2.524A2.392,2.392,0,0,1,190.693-21.261Z" transform="translate(-151 108)" fill="#d3b093"/><path d="M193.82-20.85a5.733,5.733,0,0,0,.481-2.305,6,6,0,0,1,.4,2.234A1.99,1.99,0,0,1,193.82-20.85Z" transform="translate(-151 108)" fill="#d3b093"/><path d="M184.29-21.986a3.394,3.394,0,0,1-.4-2.305,6.273,6.273,0,0,0-.645,2.446A2.4,2.4,0,0,0,184.29-21.986Z" transform="translate(-151 108)" fill="#d3b093"/><path d="M181.115-22.222a5.718,5.718,0,0,1,.21-2.346,5.973,5.973,0,0,0-1.034,2.024A2.007,2.007,0,0,0,181.115-22.222Z" transform="translate(-151 108)" fill="#d3b093"/><path d="M175.226-61.646l1.81,2.453,9.06-8.6s-2.042-1.511-2.393-1.374" transform="translate(-151 108)" fill="#45352e"/><path d="M206.5-59.838l-2.163,2.144-7.628-9.895s2.248-1.179,2.575-.99" transform="translate(-151 108)" fill="#45352e"/><path d="M175.226-54.125c-.077,8.493,6.838,12.83,15.205,12.9s15.02-4.14,15.1-12.634-7.158-15.411-14.166-15.387C183.9-69.218,175.3-62.617,175.226-54.125Z" transform="translate(-151 108)" fill="#e2cfb3"/><path d="M185.477-59.408a26.965,26.965,0,0,1,2.913,1.018,7.31,7.31,0,0,0,2.294.139c1.974-.178,3.869-1.213,5.847-.533.534.183.765-.664.234-.844-1.8-.619-3.423.029-5.211.371a6.672,6.672,0,0,1-3.782-.26,8.971,8.971,0,0,0-2.295-.766c-.56-.062-.555.813,0,.875Z" transform="translate(-151 108)" fill="#dbbda2"/><path d="M187.343-62.124a19.011,19.011,0,0,1,2.058.719,5.191,5.191,0,0,0,1.62.1c1.4-.125,2.733-.858,4.131-.377.379.128.54-.467.165-.6-1.273-.435-2.418.022-3.679.262a4.682,4.682,0,0,1-2.672-.183,6.207,6.207,0,0,0-1.623-.539c-.394-.046-.392.572,0,.617Z" transform="translate(-151 108)" fill="#dbbda2"/><path d="M188.069-64.883a15.861,15.861,0,0,1,1.739.607,4.312,4.312,0,0,0,1.369.083c1.178-.107,2.309-.723,3.49-.319.318.107.456-.395.14-.5a5.8,5.8,0,0,0-3.11.222,3.978,3.978,0,0,1-2.258-.153,5.277,5.277,0,0,0-1.37-.459c-.332-.037-.331.487,0,.524Z" transform="translate(-151 108)" fill="#dbbda2"/><path d="M198.75-46.084c-.276,3.213-4.975,4.419-10.031,3.983s-8.917-2.4-8.64-5.613,4.607-5.279,9.729-4.9C195.419-52.186,199.026-49.3,198.75-46.084Z" transform="translate(-151 108)" fill="#826a56"/><path d="M200.645-53.625a3.987,3.987,0,0,1-3.984,3.984,3.985,3.985,0,0,1-3.984-3.984,3.985,3.985,0,0,1,3.984-3.986A3.987,3.987,0,0,1,200.645-53.625Z" transform="translate(-151 108)" fill="#826a56"/><path d="M186.867-54.368a3.982,3.982,0,0,1-3.985,3.983,3.984,3.984,0,0,1-3.985-3.983,3.985,3.985,0,0,1,3.985-3.985A3.984,3.984,0,0,1,186.867-54.368Z" transform="translate(-151 108)" fill="#826a56"/><path d="M183.7-69.171s3.854,8.361.726,9.7-8.01-1.077-8.01-1.077-1.453-.276-1.116-1.482S176.946-69.351,183.7-69.171Z" transform="translate(-151 108)" fill="#58453a"/><path d="M199.287-68.579s-5.1,7.669-2.209,9.473,8.08.169,8.08.169,1.478-.048,1.33-1.292S205.99-67.719,199.287-68.579Z" transform="translate(-151 108)" fill="#58453a"/><path d="M195.017-53.435a1.47,1.47,0,0,0,1.47,1.471,1.469,1.469,0,0,0,1.469-1.471,1.469,1.469,0,0,0-1.469-1.47A1.47,1.47,0,0,0,195.017-53.435Z" transform="translate(-151 108)" fill="#1c1a1c"/><path d="M181.726-54.206a1.473,1.473,0,0,0,1.472,1.469,1.47,1.47,0,0,0,1.47-1.469,1.469,1.469,0,0,0-1.47-1.472A1.471,1.471,0,0,0,181.726-54.206Z" transform="translate(-151 108)" fill="#1c1a1c"/><path d="M186.651-52.317a3.184,3.184,0,0,0,2.7,2.922,3.185,3.185,0,0,0,3.275-2.263c.107-.993-1.142-1.942-2.793-2.125S186.76-53.307,186.651-52.317Z" transform="translate(-151 108)" fill="#1c1a1c"/><path d="M192.465-44.921a3.225,3.225,0,0,1-2.318-1.2,3.544,3.544,0,0,1-.762-1.716l.146-1.924-.456-.036-.15,1.94a3.383,3.383,0,0,1-.912,1.583,3.122,3.122,0,0,1-2.417.9c-.2-.035-.212.288-.016.324a3.4,3.4,0,0,0,2.641-.979,3.525,3.525,0,0,0,.919-1.466,3.64,3.64,0,0,0,.777,1.593,3.51,3.51,0,0,0,2.532,1.307C192.648-44.608,192.663-44.931,192.465-44.921Z" transform="translate(-151 108)" fill="#1c1a1c"/><path d="M288.41-22.463c0,1.643-9.666,2.975-21.589,2.975s-21.588-1.332-21.588-2.975,9.666-2.975,21.588-2.975S288.41-24.106,288.41-22.463Z" transform="translate(-151 108)" fill="#a6c9a7"/><path d="M271.44-28.923s-.977,4.464.808,5.651a3.8,3.8,0,0,0,3.738.087l-.041-6.12-4.674.425Z" transform="translate(-151 108)" fill="#e0e0d9"/><path d="M262.717-28.95s.976,4.461-.808,5.65a3.8,3.8,0,0,1-3.74.085l.044-6.119,4.674.425Z" transform="translate(-151 108)" fill="#e0e0d9"/><path d="M250.62-47.439a14.372,14.372,0,0,0,.174,13.99,18.5,18.5,0,0,1,1.722,3.076c.557,1.574.384,3.306.653,4.959s1.245,3.426,2.9,3.677a3.488,3.488,0,0,0,3.3-1.822,10.781,10.781,0,0,0,1.152-3.8.761.761,0,0,1,.25-.534.832.832,0,0,1,.329-.1,70.695,70.695,0,0,1,12.34-.55,1.063,1.063,0,0,1,.543.118c.35.22.342.721.3,1.131a8.61,8.61,0,0,0,.051,2.932,3.267,3.267,0,0,0,1.721,2.268,3.268,3.268,0,0,0,3.361-.746,8.122,8.122,0,0,0,1.9-3.065,70.5,70.5,0,0,0,3.1-10.552,12.076,12.076,0,0,0,.469-3.207,9.55,9.55,0,0,0-.726-3.045,8.342,8.342,0,0,0-1.343-2.45,9.112,9.112,0,0,0-4.894-2.53,37.371,37.371,0,0,0-4.9-.9c-2.584-.3-5.322-.364-7.544-1.715Z" transform="translate(-151 108)" fill="#f6f5f2"/><path d="M288.852-47.555a15.64,15.64,0,0,0-.236-2.8.837.837,0,0,0-.862-.7.391.391,0,0,0-.2.028h-.005a.816.816,0,0,0-.486.359l-.045.069a23.029,23.029,0,0,1-4.079,5.6c-.046-.054-.085-.1-.13-.159a9.112,9.112,0,0,0-4.894-2.53,37.371,37.371,0,0,0-4.9-.9,35.854,35.854,0,0,1-5.229-.753,8.956,8.956,0,0,1-2.315-.962L250.62-47.439a14.4,14.4,0,0,0-1.135,10.945,13.568,13.568,0,0,0,1.309,3.045c.247.421.517.83.776,1.244a12.123,12.123,0,0,0,9.741.635c1.694-.587,3.3-1.538,4.973-2.252a19.43,19.43,0,0,1,5.454-1.471,9.618,9.618,0,0,1,7.344,1.717,34.94,34.94,0,0,1,3.573,3.868c.677-2.219,1.218-4.487,1.756-6.746a15.251,15.251,0,0,0,.451-2.493c.956-1.162,1.94-2.632,2.521-3.484A9.263,9.263,0,0,0,288.852-47.555Z" transform="translate(-151 108)" fill="#343031"/><path d="M275.317-22.58a3.38,3.38,0,0,0,1.2-2.015,6.268,6.268,0,0,1-.266,2.517A2.418,2.418,0,0,1,275.317-22.58Z" transform="translate(-151 108)" fill="#e0e0d9"/><path d="M277.179-21.978a5.738,5.738,0,0,0,.44-2.313,5.946,5.946,0,0,1,.44,2.227A2.005,2.005,0,0,1,277.179-21.978Z" transform="translate(-151 108)" fill="#e0e0d9"/><path d="M254.666-22.352a3.391,3.391,0,0,0,1.192-2.016,6.283,6.283,0,0,1-.263,2.516A2.38,2.38,0,0,1,254.666-22.352Z" transform="translate(-151 108)" fill="#e0e0d9"/><path d="M256.525-21.75a5.792,5.792,0,0,0,.442-2.316,6,6,0,0,1,.44,2.231A2.02,2.02,0,0,1,256.525-21.75Z" transform="translate(-151 108)" fill="#e0e0d9"/><path d="M272.471-48.374S270.709-49,271.322-50.5a16.757,16.757,0,0,1,1.979-3.244s2.526,2.26.219,5.548Z" transform="translate(-151 108)" fill="#8b1905"/><path d="M272.615-49.124s-.991-1.583.426-2.38a16.774,16.774,0,0,1,3.568-1.3s.568,3.343-3.287,4.475Z" transform="translate(-151 108)" fill="#8b1905"/><path d="M273.616-46.99c-1.6,2.824-8.029,11.836-14.228,13.9a1.174,1.174,0,0,1-.778-.019c-1.6-.591-7.734-2.981-9.889-5.926,0,0-.938-1.188,0-2.041.837-.752,18.439-7.286,22.438-8.638a2.8,2.8,0,0,1,2.07.573l.69.429C274.27-48.3,273.886-47.463,273.616-46.99Z" transform="translate(-151 108)" fill="#8b1905"/><path d="M250.628-66.171s-1.394-4.786-8.9-2.287c0,0-1.621,6.56,4.046,7.784C245.77-60.674,251.323-62.969,250.628-66.171Z" transform="translate(-151 108)" fill="#2e2a2c"/><path d="M249.53-65.363s-1.742-3.46-6.424-1.572c0,0-.229,4.4,3.577,5.366A5.684,5.684,0,0,0,249.53-65.363Z" transform="translate(-151 108)" fill="#fb9fa4"/><path d="M258.636-67.26s-.463-4.962,7.44-5.395c0,0,3.916,5.5-.9,8.726C265.172-63.929,259.163-64.027,258.636-67.26Z" transform="translate(-151 108)" fill="#2e2a2c"/><path d="M259.951-66.911s.351-3.857,5.4-3.822c0,0,1.829,4.006-1.357,6.306A5.689,5.689,0,0,1,259.951-66.911Z" transform="translate(-151 108)" fill="#fb9fa4"/><path d="M272.447-49.465a5.364,5.364,0,0,0-2.131-3.548l-2.722.39c-.72-6.816-6.387-11.15-11.325-11.175s-10,5.18-9.946,12.756c.005.5.031.979.075,1.445l-2.5.357a5.808,5.808,0,0,0-1.11,3.431c.46,4.177,6.7,6.891,14.239,6.367a16.777,16.777,0,0,0,4.3-.639C268.078-41.642,272.88-45.544,272.447-49.465Z" transform="translate(-151 108)" fill="#f6f5f2"/><path d="M269.641-52.915l.5-.073c-.245-8.351-7.7-14.807-14.173-14.838-6.159-.027-12.509,6.887-12.436,15.377a16.146,16.146,0,0,0,.346,3.235c0-.007.008-.016.012-.022l-.024.089c1.942,1.248,2.539-.372,2.539-.372l-.031-.075.022,0c-.044-.466-.07-.947-.075-1.445a14.448,14.448,0,0,1,2.341-8.21l-.129.228.141-.055a3.08,3.08,0,0,1,3.311.229,4.584,4.584,0,0,1,1.03,1.032,21.265,21.265,0,0,1,3.268,7.513l1.07.291-.054-.462.835-.447a20.721,20.721,0,0,1,1.232-8.018,4.344,4.344,0,0,1,.734-1.228,2.986,2.986,0,0,1,2.938-1,12.752,12.752,0,0,1,4.551,8.516h-.01l.013.021v.007h0c.127.167.995,1.174,2.545-.357Z" transform="translate(-151 108)" fill="#343031"/><path d="M264.075-53.414a1.471,1.471,0,0,1-1.634,1.289,1.47,1.47,0,0,1-1.285-1.634,1.468,1.468,0,0,1,1.633-1.286A1.467,1.467,0,0,1,264.075-53.414Z" transform="translate(-151 108)" fill="#1c1a1c"/><path d="M252.149-51.868a1.472,1.472,0,0,1-1.634,1.287,1.473,1.473,0,0,1-1.287-1.634,1.47,1.47,0,0,1,1.634-1.285A1.466,1.466,0,0,1,252.149-51.868Z" transform="translate(-151 108)" fill="#1c1a1c"/><path d="M260.6-44.71a2.17,2.17,0,0,1-1.874-.76,3.719,3.719,0,0,1-.834-1.484l-.211-1.823-.336.039.209,1.835a3.6,3.6,0,0,1-.4,1.622,2.137,2.137,0,0,1-1.6,1.216c-.151,0-.107.305.042.307a2.329,2.329,0,0,0,1.752-1.329,3.688,3.688,0,0,0,.423-1.514,3.749,3.749,0,0,0,.828,1.369,2.349,2.349,0,0,0,2.046.826C260.788-44.446,260.746-44.748,260.6-44.71Z" transform="translate(-151 108)" fill="#1c1a1c"/><path d="M259.841-49.915a2.633,2.633,0,0,1-2.258,2.4,2.629,2.629,0,0,1-2.691-1.89c-.084-.822.956-1.6,2.323-1.74S259.755-50.735,259.841-49.915Z" transform="translate(-151 108)" fill="#1c1a1c"/><path d="M247.406-21.75c0,1.641-9.667,2.975-21.588,2.975s-21.589-1.334-21.589-2.975,9.667-2.975,21.589-2.975S247.406-23.392,247.406-21.75Z" transform="translate(-151 108)" fill="#a6c9a7"/><path d="M237.872-25.711a8.472,8.472,0,0,0-2-2.051,33.553,33.553,0,0,0,1.253-11.43c-.33-3.853-1.669-7.668-4.073-10.2l-15.171-.315c-2.405,2.533-3.743,6.349-4.074,10.2a33.676,33.676,0,0,0,1.253,11.431,8.452,8.452,0,0,0-2,2.052,3.087,3.087,0,0,0-.869,2.43,2.372,2.372,0,0,0,1.092,1.433c2,1.352,3.718,2.037,5.624.5a1.614,1.614,0,0,1,.607-.375.935.935,0,0,1,.383.017,18.964,18.964,0,0,0,10.934.366,1.305,1.305,0,0,1,.6-.064,1.584,1.584,0,0,1,.607.373c1.9,1.538,3.624.85,5.622-.5a2.366,2.366,0,0,0,1.1-1.434A3.091,3.091,0,0,0,237.872-25.711Z" transform="translate(-151 108)" fill="#f6f5f2"/><path d="M232.721-20.276c.005,0,.006,0,.011-.005a3.2,3.2,0,0,0,1.825-2.766,7.812,7.812,0,0,0-.629-2.364c-.853-2.531-.65-5.228-.729-7.864a12.488,12.488,0,0,0-1.667-6.543,2.057,2.057,0,0,0-1.754-.822h0a2.069,2.069,0,0,0-1.746.887,12.322,12.322,0,0,0-1.418,6.727c.044,2.64.377,5.324-.352,7.893a7.821,7.821,0,0,0-.517,2.39,3.2,3.2,0,0,0,1.954,2.676l.012,0a.839.839,0,0,0,.092.036.409.409,0,0,0,.061.01A7.966,7.966,0,0,0,232.721-20.276Z" transform="translate(-151 108)" fill="#fff"/><path d="M223.594-20.235l.008-.008a3.2,3.2,0,0,0,1.827-2.768,7.872,7.872,0,0,0-.631-2.362c-.851-2.531-.649-5.227-.73-7.863A12.427,12.427,0,0,0,222.4-39.78a2.043,2.043,0,0,0-1.751-.82h0a2.072,2.072,0,0,0-1.747.883,12.341,12.341,0,0,0-1.419,6.731c.048,2.64.38,5.321-.349,7.891a7.726,7.726,0,0,0-.516,2.39,3.2,3.2,0,0,0,1.951,2.678l.014.005.091.037.061.01A8.027,8.027,0,0,0,223.594-20.235Z" transform="translate(-151 108)" fill="#fff"/><path d="M221.977-19.83a3.4,3.4,0,0,1-.341-2.315,6.3,6.3,0,0,0-.707,2.428A2.383,2.383,0,0,0,221.977-19.83Z" transform="translate(-151 108)" fill="#e0e0d9"/><path d="M219-19.954a5.848,5.848,0,0,1-.019-2.425,6.013,6.013,0,0,0-.875,2.092A2.036,2.036,0,0,0,219-19.954Z" transform="translate(-151 108)" fill="#e0e0d9"/><path d="M228.156-20.04a3.4,3.4,0,0,0,.582-2.27,6.237,6.237,0,0,1,.449,2.49A2.4,2.4,0,0,1,228.156-20.04Z" transform="translate(-151 108)" fill="#e0e0d9"/><path d="M231.53-19.927a5.784,5.784,0,0,0-.024-2.354,6,6,0,0,1,.873,2.1A2,2,0,0,1,231.53-19.927Z" transform="translate(-151 108)" fill="#e0e0d9"/><path d="M213.682-62.716c.552,1.865,1.414,3.542,1.891,5.445s.488,4.246-.511,5.708c-.609.885-1.513,1.34-2.026,2.333a22.393,22.393,0,0,0-.871,3.3,1.72,1.72,0,0,1-.36.689.994.994,0,0,1-.447.242,2.768,2.768,0,0,1-2.374-.5,6.883,6.883,0,0,1-1.858-2.176,5.468,5.468,0,0,1-.574-1.261,8.575,8.575,0,0,1-.237-2.261,20.324,20.324,0,0,1,.367-5.305,16.346,16.346,0,0,1,2.012-4.327,15.282,15.282,0,0,1,2.162-3.048,11.274,11.274,0,0,1,1.855-1.408Z" transform="translate(-151 108)" fill="#efeeea"/><path d="M209.627-64.586a1.529,1.529,0,0,0,1.53,1.53,1.528,1.528,0,0,0,1.528-1.53,1.529,1.529,0,0,0-1.528-1.53A1.529,1.529,0,0,0,209.627-64.586Z" transform="translate(-151 108)" fill="#efeeea"/><path d="M208.478-62.462a1.533,1.533,0,0,0,1.531,1.532,1.532,1.532,0,0,0,1.531-1.532,1.531,1.531,0,0,0-1.531-1.529A1.531,1.531,0,0,0,208.478-62.462Z" transform="translate(-151 108)" fill="#efeeea"/><path d="M206.481-61.357a1.531,1.531,0,0,0,1.531,1.531,1.529,1.529,0,0,0,1.529-1.531,1.529,1.529,0,0,0-1.529-1.53A1.531,1.531,0,0,0,206.481-61.357Z" transform="translate(-151 108)" fill="#efeeea"/><path d="M206.355-59.231a1.528,1.528,0,0,0,1.528,1.529,1.529,1.529,0,0,0,1.531-1.529,1.531,1.531,0,0,0-1.531-1.532A1.529,1.529,0,0,0,206.355-59.231Z" transform="translate(-151 108)" fill="#efeeea"/><path d="M205.335-57.063a1.528,1.528,0,0,0,1.53,1.528,1.529,1.529,0,0,0,1.529-1.528,1.529,1.529,0,0,0-1.529-1.53A1.529,1.529,0,0,0,205.335-57.063Z" transform="translate(-151 108)" fill="#efeeea"/><path d="M204.909-54.6a1.53,1.53,0,0,0,1.529,1.529A1.53,1.53,0,0,0,207.97-54.6a1.531,1.531,0,0,0-1.532-1.531A1.531,1.531,0,0,0,204.909-54.6Z" transform="translate(-151 108)" fill="#efeeea"/><path d="M204.825-52.22a1.529,1.529,0,0,0,1.53,1.529,1.527,1.527,0,0,0,1.528-1.529,1.527,1.527,0,0,0-1.528-1.529A1.529,1.529,0,0,0,204.825-52.22Z" transform="translate(-151 108)" fill="#efeeea"/><path d="M205.547-50.35a1.529,1.529,0,0,0,1.53,1.529A1.527,1.527,0,0,0,208.6-50.35a1.528,1.528,0,0,0-1.528-1.53A1.53,1.53,0,0,0,205.547-50.35Z" transform="translate(-151 108)" fill="#efeeea"/><path d="M205.887-48.012a1.529,1.529,0,0,0,1.531,1.529,1.528,1.528,0,0,0,1.528-1.529,1.527,1.527,0,0,0-1.528-1.529A1.529,1.529,0,0,0,205.887-48.012Z" transform="translate(-151 108)" fill="#efeeea"/><path d="M207.035-45.8a1.529,1.529,0,0,0,1.529,1.528,1.528,1.528,0,0,0,1.53-1.528,1.528,1.528,0,0,0-1.53-1.53A1.529,1.529,0,0,0,207.035-45.8Z" transform="translate(-151 108)" fill="#efeeea"/><path d="M209.372-45.674a1.529,1.529,0,0,0,1.528,1.528,1.528,1.528,0,0,0,1.53-1.528,1.529,1.529,0,0,0-1.53-1.531A1.529,1.529,0,0,0,209.372-45.674Z" transform="translate(-151 108)" fill="#efeeea"/><path d="M210.986-47.035a1.53,1.53,0,0,0,1.531,1.53,1.529,1.529,0,0,0,1.528-1.53,1.53,1.53,0,0,0-1.528-1.531A1.531,1.531,0,0,0,210.986-47.035Z" transform="translate(-151 108)" fill="#efeeea"/><path d="M211.283-49.373a1.533,1.533,0,0,0,1.53,1.532,1.531,1.531,0,0,0,1.529-1.532,1.53,1.53,0,0,0-1.529-1.529A1.532,1.532,0,0,0,211.283-49.373Z" transform="translate(-151 108)" fill="#efeeea"/><path d="M237.229-62.971c-.549,1.865-1.41,3.541-1.89,5.447s-.487,4.246.513,5.707c.609.885,1.512,1.338,2.024,2.333a22.066,22.066,0,0,1,.872,3.3,1.732,1.732,0,0,0,.361.687,1,1,0,0,0,.445.244,2.767,2.767,0,0,0,2.374-.5,6.888,6.888,0,0,0,1.86-2.174,5.526,5.526,0,0,0,.573-1.264,8.7,8.7,0,0,0,.24-2.261,20.4,20.4,0,0,0-.369-5.3,16.327,16.327,0,0,0-2.013-4.326,15.347,15.347,0,0,0-2.161-3.051,11.429,11.429,0,0,0-1.856-1.407Z" transform="translate(-151 108)" fill="#efeeea"/><path d="M241.287-64.841a1.529,1.529,0,0,1-1.531,1.53,1.528,1.528,0,0,1-1.529-1.53,1.529,1.529,0,0,1,1.529-1.529A1.529,1.529,0,0,1,241.287-64.841Z" transform="translate(-151 108)" fill="#efeeea"/><path d="M242.435-62.716a1.53,1.53,0,0,1-1.53,1.529,1.529,1.529,0,0,1-1.529-1.529,1.53,1.53,0,0,1,1.529-1.531A1.531,1.531,0,0,1,242.435-62.716Z" transform="translate(-151 108)" fill="#efeeea"/><path d="M244.433-61.61a1.532,1.532,0,0,1-1.531,1.529,1.53,1.53,0,0,1-1.531-1.529,1.53,1.53,0,0,1,1.531-1.531A1.532,1.532,0,0,1,244.433-61.61Z" transform="translate(-151 108)" fill="#efeeea"/><circle cx="1.53" cy="1.53" r="1.53" transform="translate(90.499 46.984)" fill="#efeeea"/><path d="M245.577-57.319a1.528,1.528,0,0,1-1.528,1.53,1.531,1.531,0,0,1-1.531-1.53,1.529,1.529,0,0,1,1.531-1.528A1.527,1.527,0,0,1,245.577-57.319Z" transform="translate(-151 108)" fill="#efeeea"/><path d="M246-54.854a1.528,1.528,0,0,1-1.529,1.529,1.528,1.528,0,0,1-1.53-1.529,1.528,1.528,0,0,1,1.53-1.528A1.527,1.527,0,0,1,246-54.854Z" transform="translate(-151 108)" fill="#efeeea"/><path d="M246.089-52.475a1.531,1.531,0,0,1-1.529,1.531,1.532,1.532,0,0,1-1.531-1.531A1.53,1.53,0,0,1,244.56-54,1.529,1.529,0,0,1,246.089-52.475Z" transform="translate(-151 108)" fill="#efeeea"/><path d="M245.364-50.6a1.527,1.527,0,0,1-1.529,1.528,1.527,1.527,0,0,1-1.528-1.528,1.526,1.526,0,0,1,1.528-1.529A1.526,1.526,0,0,1,245.364-50.6Z" transform="translate(-151 108)" fill="#efeeea"/><path d="M245.026-48.268a1.527,1.527,0,0,1-1.531,1.529,1.529,1.529,0,0,1-1.529-1.529,1.53,1.53,0,0,1,1.529-1.529A1.528,1.528,0,0,1,245.026-48.268Z" transform="translate(-151 108)" fill="#efeeea"/><path d="M243.88-46.059a1.532,1.532,0,0,1-1.53,1.532,1.531,1.531,0,0,1-1.531-1.532,1.529,1.529,0,0,1,1.531-1.528A1.53,1.53,0,0,1,243.88-46.059Z" transform="translate(-151 108)" fill="#efeeea"/><path d="M241.543-45.93a1.532,1.532,0,0,1-1.53,1.529,1.53,1.53,0,0,1-1.53-1.529,1.529,1.529,0,0,1,1.53-1.53A1.532,1.532,0,0,1,241.543-45.93Z" transform="translate(-151 108)" fill="#efeeea"/><path d="M239.928-47.29a1.532,1.532,0,0,1-1.531,1.531,1.531,1.531,0,0,1-1.53-1.531,1.531,1.531,0,0,1,1.53-1.531A1.532,1.532,0,0,1,239.928-47.29Z" transform="translate(-151 108)" fill="#efeeea"/><path d="M239.628-49.628a1.529,1.529,0,0,1-1.53,1.53,1.529,1.529,0,0,1-1.527-1.53,1.531,1.531,0,0,1,1.527-1.53A1.531,1.531,0,0,1,239.628-49.628Z" transform="translate(-151 108)" fill="#efeeea"/><path d="M235.694-54.609a12.693,12.693,0,0,0,.97-5.3c-.215-6.663-5.459-10.058-11.729-9.859S213.748-65.85,213.96-59.188a12.654,12.654,0,0,0,1.115,4.826,8.156,8.156,0,0,0-1.906,5.4c.167,5.288,5.721,8.894,12.466,8.681s12.13-4.172,11.961-9.457A8.057,8.057,0,0,0,235.694-54.609Z" transform="translate(-151 108)" fill="#fff"/><path d="M231.727-46.92c0,3.071-2.906,5.564-6.489,5.564s-6.487-2.493-6.487-5.564,2.9-5.567,6.487-5.567S231.727-50,231.727-46.92Z" transform="translate(-151 108)" fill="#f6f5f2"/><path d="M238.977-65.549a1.855,1.855,0,0,0-1.869-1.842c-.029,0-.054,0-.085,0a1.858,1.858,0,0,0-1.8-1.823,1.867,1.867,0,0,0-1.837-1.482,1.866,1.866,0,0,0-.55.081,1.885,1.885,0,0,0-1.207-.838,1.873,1.873,0,0,0-1.834-1.46,1.879,1.879,0,0,0-1.735,1.141,1.889,1.889,0,0,0-1.267-.487,1.885,1.885,0,0,0-1.295.511,1.877,1.877,0,0,0-1.518-.766,1.872,1.872,0,0,0-1.807,1.351,1.885,1.885,0,0,0-1.249-.47,1.885,1.885,0,0,0-1.555.811A1.876,1.876,0,0,0,218-71.4a1.864,1.864,0,0,0-1.877,1.849c0,.014,0,.026,0,.042a1.852,1.852,0,0,0-.753-.157,1.861,1.861,0,0,0-1.877,1.847,1.818,1.818,0,0,0,.153.728,1.855,1.855,0,0,0-1.625,1.828,1.821,1.821,0,0,0,.44,1.191,1.839,1.839,0,0,0-.683,1.426,1.861,1.861,0,0,0,1.877,1.845,1.89,1.89,0,0,0,1.125-.369c2.3,1.58,6.161,2.615,10.533,2.615,4.5,0,8.444-1.1,10.723-2.749a1.865,1.865,0,0,0,.856.206,1.857,1.857,0,0,0,1.872-1.842,1.816,1.816,0,0,0-.453-1.2A1.825,1.825,0,0,0,238.977-65.549Z" transform="translate(-151 108)" fill="#fff"/><path d="M228.656-56.22a1.426,1.426,0,0,0,1.625,1.191,1.421,1.421,0,0,0,1.193-1.622,1.422,1.422,0,0,0-1.623-1.192A1.424,1.424,0,0,0,228.656-56.22Z" transform="translate(-151 108)" fill="#1c1a1c"/><path d="M219.635-56.219a1.425,1.425,0,0,0,1.625,1.191,1.424,1.424,0,0,0,1.192-1.622,1.425,1.425,0,0,0-1.625-1.193A1.424,1.424,0,0,0,219.635-56.219Z" transform="translate(-151 108)" fill="#1c1a1c"/><path d="M222.633-51.29c0,1.022,1.109,2.666,2.462,2.66s2.44-1.662,2.435-2.685a2.213,2.213,0,0,0-2.458-1.836A2.212,2.212,0,0,0,222.633-51.29Z" transform="translate(-151 108)" fill="#1c1a1c"/><path d="M228.7-44.535a3.235,3.235,0,0,1-2.4-1.033,3.528,3.528,0,0,1-.884-1.658l.012-1.93h-.461l-.01,1.944a3.384,3.384,0,0,1-.8,1.644,3.116,3.116,0,0,1-2.345,1.066c-.2-.02-.192.3.006.324a3.394,3.394,0,0,0,2.567-1.164,3.484,3.484,0,0,0,.81-1.53,3.643,3.643,0,0,0,.889,1.538,3.515,3.515,0,0,0,2.618,1.123C228.9-44.234,228.894-44.559,228.7-44.535Z" transform="translate(-151 108)" fill="#1c1a1c"/><path d="M234.785-63.618s-.777-5.427-2.386-4.639-7.856,6.335.578,6.612Z" transform="translate(-151 108)" fill="#6bc5b4"/><path d="M234.344-63.974s-.295-4.19-1.694-4.045C231.087-67.858,234.344-63.974,234.344-63.974Z" transform="translate(-151 108)" fill="#468f7e"/><path d="M234.455-63.628s5.247-1.6,5.215.193-2.4,9.8-6.236,2.282Z" transform="translate(-151 108)" fill="#6bc5b4"/><path d="M234.964-63.379s3.918-1.512,4.383-.181C239.863-62.077,234.964-63.379,234.964-63.379Z" transform="translate(-151 108)" fill="#468f7e"/><path d="M235.069-61.826a1.5,1.5,0,0,1-2.056.505A1.5,1.5,0,0,1,232.6-63.4a1.494,1.494,0,0,1,2.056-.5A1.5,1.5,0,0,1,235.069-61.826Z" transform="translate(-151 108)" fill="#468f7e"/></g></svg>